HIERARCHY
ROOT Hips
{
	OFFSET 0.000000 0.000000 0.000000
	CHANNELS 6 Xposition Yposition Zposition Zrotation Yrotation Xrotation 
	JOINT LeftUpLeg_virtual
	{
		OFFSET 0.000000 0.000000 0.000000
		CHANNELS 3 Zrotation Yrotation Xrotation
		JOINT LeftUpLeg
		{
			OFFSET 8.479694 -4.795517 -0.379053
			CHANNELS 3 Zrotation Yrotation Xrotation
			JOINT LeftLeg
			{
				OFFSET 0.485052 -32.551468 0.112863
				CHANNELS 3 Zrotation Yrotation Xrotation
				JOINT LeftFoot
				{
					OFFSET 0.438033 -32.635670 -3.012641
					CHANNELS 3 Zrotation Yrotation Xrotation
					JOINT LeftToeBase
					{
						OFFSET 0.970169 -13.225353 11.864223
						CHANNELS 3 Zrotation Yrotation Xrotation
						End Site
						{
							OFFSET 0.000000 0.000000 0.000000
						}
					}
				}
			}
		}
	}
	JOINT RightUpLeg_virtual
	{
		OFFSET 0.000000 0.000000 0.000000
		CHANNELS 3 Zrotation Yrotation Xrotation
		JOINT RightUpLeg
		{
			OFFSET -8.479694 -4.795517 -0.379053
			CHANNELS 3 Zrotation Yrotation Xrotation
			JOINT RightLeg
			{
				OFFSET -0.484100 -32.551483 0.112903
				CHANNELS 3 Zrotation Yrotation Xrotation
				JOINT RightFoot
				{
					OFFSET -0.438985 -32.635651 -3.012681
					CHANNELS 3 Zrotation Yrotation Xrotation
					JOINT RightToeBase
					{
						OFFSET -0.970169 -13.225354 11.864223
						CHANNELS 3 Zrotation Yrotation Xrotation
						End Site
						{
							OFFSET 0.000000 0.000000 0.000000
						}
					}
				}
			}
		}
	}
	JOINT Spine_virtual
	{
		OFFSET 0.000000 0.000000 0.000000
		CHANNELS 3 Zrotation Yrotation Xrotation
		JOINT Spine
		{
			OFFSET 0.000000 7.722015 1.166203
			CHANNELS 3 Zrotation Yrotation Xrotation
			JOINT Spine1
			{
				OFFSET 0.000000 12.024086 0.248766
				CHANNELS 3 Zrotation Yrotation Xrotation
				JOINT Spine2
				{
					OFFSET -0.000000 11.503036 -0.491240
					CHANNELS 3 Zrotation Yrotation Xrotation
					JOINT Neck_virtual
					{
						OFFSET 0.000000 0.000000 0.000000
						CHANNELS 3 Zrotation Yrotation Xrotation
						JOINT Neck
						{
							OFFSET 0.000000 18.430687 -3.123054
							CHANNELS 3 Zrotation Yrotation Xrotation
							JOINT Head
							{
								OFFSET -0.000000 9.051071 1.034021
								CHANNELS 3 Zrotation Yrotation Xrotation
								End Site
								{
									OFFSET 0.000000 0.000000 0.000000
								}
							}
						}
					}
					JOINT LeftShoulder_virtual
					{
						OFFSET 0.000000 0.000000 0.000000
						CHANNELS 3 Zrotation Yrotation Xrotation
						JOINT LeftShoulder
						{
							OFFSET 6.197824 13.665230 -4.064723
							CHANNELS 3 Zrotation Yrotation Xrotation
							JOINT LeftArm
							{
								OFFSET 7.778132 -0.187073 -1.709282
								CHANNELS 3 Zrotation Yrotation Xrotation
								JOINT LeftForeArm
								{
									OFFSET 21.954697 0.000000 -2.041093
									CHANNELS 3 Zrotation Yrotation Xrotation
									JOINT LeftHand
									{
										OFFSET 22.992908 0.000000 -0.870901
										CHANNELS 3 Zrotation Yrotation Xrotation
										End Site
										{
											OFFSET 0.000000 0.000000 0.000000
										}
									}
								}
							}
						}
					}
					JOINT RightShoulder_virtual
					{
						OFFSET 0.000000 0.000000 0.000000
						CHANNELS 3 Zrotation Yrotation Xrotation
						JOINT RightShoulder
						{
							OFFSET -6.197824 13.665230 -4.064723
							CHANNELS 3 Zrotation Yrotation Xrotation
							JOINT RightArm
							{
								OFFSET -7.778132 -0.187073 -1.709282
								CHANNELS 3 Zrotation Yrotation Xrotation
								JOINT RightForeArm
								{
									OFFSET -21.954697 0.000000 -2.041093
									CHANNELS 3 Zrotation Yrotation Xrotation
									JOINT RightHand
									{
										OFFSET -22.992908 0.000000 -0.870901
										CHANNELS 3 Zrotation Yrotation Xrotation
										End Site
										{
											OFFSET 0.000000 0.000000 0.000000
										}
									}
								}
							}
						}
					}
				}
			}
		}
	}
}
MOTION
Frames: 11
Frame Time: 0.033333
-7.650866 62.977543 -12.094291 179.737494 17.731448 179.939790 -0.854725 -8.101991 -16.903707 -2.113507 3.712752 -58.053254 13.761802 0.300555 58.040605 -3.682114 -15.844309 -6.612708 0.000000 0.000000 0.000000 -0.487442 -2.665708 -15.450624 1.608270 -3.402748 -50.302595 -1.065609 4.116633 46.419940 7.141230 3.768775 10.511690 0.000000 0.000000 0.000000 -7.231075 -2.500407 -17.695992 -3.804041 1.240951 -6.023804 1.176182 -0.698268 17.861030 0.082103 -0.069252 -0.024663 0.929190 -0.833199 20.710798 -1.051206 1.531672 -1.652539 0.000000 0.000000 0.000000 3.215966 -0.173967 16.418933 7.769052 -11.121853 3.526947 -78.509275 21.629939 21.815262 -0.887471 -54.378134 22.261463 0.000000 0.000000 0.000000 -0.723805 1.468363 15.352836 21.088855 20.444027 7.630180 53.837153 26.058423 18.889453 -131.146285 80.093312 -128.283042 0.000000 0.000000 0.000000 
-7.921701 62.858318 -12.394053 179.880682 16.417371 -179.938929 -0.904762 -7.322278 -16.544805 -1.332798 3.828327 -58.412980 13.227757 -0.393260 60.148804 -3.835257 -15.448013 -6.382487 0.000000 0.000000 0.000000 -1.570413 -2.047504 -14.999398 -0.350435 -0.487617 -51.231015 -0.193110 4.877473 48.891013 12.294096 7.786719 11.566443 0.000000 0.000000 0.000000 -6.830570 -1.851358 -17.848526 -3.269974 0.591013 -5.707914 1.057088 -0.772410 17.792609 0.049219 -0.066494 0.017158 0.685898 -0.842837 20.715083 -1.303862 1.904668 -1.126672 0.000000 0.000000 0.000000 2.975532 -0.244007 16.394115 6.388956 -10.662821 4.316738 -74.385391 22.651284 25.961044 -2.190217 -57.569984 23.118117 0.000000 0.000000 0.000000 -0.924988 1.338921 15.408507 20.767795 17.837961 6.721102 53.136707 20.301322 12.364995 -143.470719 77.331450 -142.003417 0.000000 0.000000 0.000000 
-8.097915 62.741058 -12.811484 -179.769746 14.843541 -179.890790 -0.866354 -6.580789 -16.185318 -0.641231 3.906395 -58.491165 12.632368 -1.043117 62.223098 -3.948786 -15.147372 -6.236710 0.000000 0.000000 0.000000 -2.573560 -1.772265 -14.646022 -1.444531 2.018531 -52.126696 0.837607 5.071343 51.321936 14.718122 9.315252 11.588504 0.000000 0.000000 0.000000 -6.401729 -1.150292 -17.937692 -2.738587 -0.231127 -5.355160 0.935041 -0.986642 17.821500 -0.012753 0.017020 0.002186 0.452406 -0.834064 20.720002 -1.449391 2.173414 -0.504867 0.000000 0.000000 0.000000 2.733963 -0.235716 16.375098 5.290376 -10.195516 5.035758 -70.402516 23.383489 29.833768 -3.501034 -60.304061 23.845264 0.000000 0.000000 0.000000 -1.117060 1.339671 15.462928 20.426304 15.334427 5.898527 53.589084 13.869281 6.455951 -147.491515 75.148214 -147.564079 0.000000 0.000000 0.000000 
-8.181074 62.645828 -13.328022 -179.409863 13.355679 -179.856093 -0.782122 -5.740726 -15.818457 -0.122590 3.954909 -58.565286 11.994014 -1.608820 64.001570 -3.932574 -14.863262 -6.246662 0.000000 0.000000 0.000000 -3.013596 -1.141292 -14.433394 -2.272944 3.803630 -52.755507 1.019279 5.290512 53.871478 15.053691 9.930366 9.651413 0.000000 0.000000 0.000000 -6.008259 -0.212784 -18.102621 -2.326427 -0.908680 -4.920755 0.926624 -1.060003 17.806873 0.034496 -0.086625 0.004145 0.247955 -0.946977 20.673581 -1.411172 2.226365 0.037761 0.000000 0.000000 0.000000 2.536109 -0.417356 16.357487 4.259353 -9.848123 5.698825 -66.678690 23.840806 33.152072 -4.594606 -62.658065 24.297845 0.000000 0.000000 0.000000 -1.340609 1.190183 15.428569 20.407765 12.894551 5.271411 54.917559 7.413679 0.945364 -147.618488 74.152454 -148.756097 0.000000 0.000000 0.000000 
-8.251038 62.575886 -13.866272 -179.211487 11.850319 -179.636038 -0.825221 -4.993098 -15.610242 0.236875 3.963175 -58.646955 11.366841 -1.963054 65.357028 -3.818736 -14.608984 -6.384822 0.000000 0.000000 0.000000 -3.292834 -0.347351 -13.920615 -3.207711 5.210941 -53.803548 1.180245 5.601878 56.432085 14.994326 10.610353 6.268594 0.000000 0.000000 0.000000 -5.726315 0.677433 -18.468191 -2.115721 -1.645891 -4.544624 0.850108 -1.235118 17.718277 -0.054179 -0.122489 0.091393 0.240293 -1.106657 20.626239 -1.283263 2.328000 0.482090 0.000000 0.000000 0.000000 2.465655 -0.670434 16.280190 3.477177 -9.508917 6.222967 -63.514489 24.133372 35.568087 -5.497510 -64.414271 24.507036 0.000000 0.000000 0.000000 -1.373548 1.007602 15.457652 20.211100 10.678345 4.650990 57.433565 1.098571 -3.801647 -145.295472 74.319582 -147.267471 0.000000 0.000000 0.000000 
-8.388371 62.545547 -14.419122 -179.150329 10.553096 -179.813828 -0.685882 -4.209333 -15.163208 0.352110 4.110360 -58.397400 10.889809 -1.977758 66.146345 -3.648983 -14.441066 -6.631599 0.000000 0.000000 0.000000 -3.274846 0.467339 -13.675785 -3.656538 5.791758 -54.761445 1.679869 5.566119 59.821952 14.631384 10.847408 3.929391 0.000000 0.000000 0.000000 -5.436392 1.508645 -18.535569 -2.094432 -2.329121 -4.123229 0.707359 -1.336662 17.707786 -0.044881 -0.096912 0.024207 0.182057 -1.283628 20.578614 -1.037893 2.305252 0.911067 0.000000 0.000000 0.000000 2.332340 -0.763146 16.313827 2.815796 -9.095238 6.651955 -60.981582 24.136147 36.887229 -6.129076 -65.713216 24.413674 0.000000 0.000000 0.000000 -1.469853 0.887981 15.561725 20.210043 8.733481 4.151970 60.719453 -5.007670 -7.821455 -139.745151 75.578912 -142.217106 0.000000 0.000000 0.000000 
-8.590877 62.550659 -14.962991 -179.451978 9.332464 -179.905475 -1.101137 -3.477815 -14.756699 0.597796 4.325363 -58.129336 10.431596 -2.035170 66.426212 -3.329671 -14.153769 -6.970115 0.000000 0.000000 0.000000 -3.156453 1.114564 -13.189653 -4.095520 5.582955 -56.420023 2.125717 5.551390 63.261205 14.202550 10.705434 3.105208 0.000000 0.000000 0.000000 -5.504982 2.316691 -18.646744 -2.252436 -3.008952 -3.753435 0.628618 -1.458679 17.689551 -0.011512 -0.048463 0.028374 0.075767 -1.437535 20.463701 -0.798158 2.199617 1.213938 0.000000 0.000000 0.000000 2.165018 -0.926858 16.264991 2.158256 -8.633913 6.916513 -59.083192 24.175552 36.816656 -6.446339 -66.649819 23.967813 0.000000 0.000000 0.000000 -1.612219 0.745180 15.630289 20.299951 6.779513 3.863815 64.758793 -10.769713 -10.839689 -129.304360 77.337009 -131.901936 0.000000 0.000000 0.000000 
-8.891739 62.556541 -15.452711 -179.717918 8.225905 -179.925638 -1.188124 -2.898825 -14.287800 0.774016 4.577718 -57.821363 10.133085 -1.886535 66.134625 -3.044865 -13.919418 -7.302912 0.000000 0.000000 0.000000 -2.697709 1.848697 -12.674941 -4.313963 4.862543 -58.099829 2.095036 5.383768 66.324743 13.013092 9.701755 3.182252 0.000000 0.000000 0.000000 -5.474288 3.150940 -18.706999 -2.432103 -3.731746 -3.390446 0.375012 -1.604183 17.650776 -0.057366 -0.064678 0.044018 -0.036824 -1.546840 20.363601 -0.516078 2.028545 1.459262 0.000000 0.000000 0.000000 2.035422 -0.942353 16.231712 1.659803 -7.934895 6.960815 -57.952632 24.043458 34.851474 -6.723847 -67.242072 23.445985 0.000000 0.000000 0.000000 -1.720657 0.709822 15.778347 20.655559 5.162124 3.511353 69.183847 -16.209700 -12.889010 -112.302981 79.095298 -114.693520 0.000000 0.000000 0.000000 
-9.281609 62.558468 -15.894076 -179.908235 7.425358 -179.961633 -1.212607 -2.402208 -13.737174 0.952328 4.912958 -57.562546 9.960087 -1.772939 65.412503 -2.818912 -13.699487 -7.538649 0.000000 0.000000 0.000000 -2.055445 2.402694 -12.329501 -4.061090 3.736545 -59.540282 0.974302 4.626179 69.235811 9.846052 6.924384 3.021298 0.000000 0.000000 0.000000 -5.205864 3.453724 -18.636508 -2.541206 -3.903565 -3.072130 0.145675 -1.554657 17.601039 -0.016501 0.022178 0.028084 -0.273976 -1.632202 20.246069 -0.181645 1.676091 1.677285 0.000000 0.000000 0.000000 1.735880 -1.089803 16.162213 1.155400 -7.220722 6.952408 -57.742638 23.510896 30.641130 -6.558958 -67.784901 22.399213 0.000000 0.000000 0.000000 -2.002983 0.619469 15.825716 21.201428 3.746009 3.300932 73.451253 -20.644235 -14.126676 -87.470128 79.734098 -89.461292 0.000000 0.000000 0.000000 
-9.721829 62.553711 -16.213121 179.959748 6.722338 -179.948970 -1.007332 -2.104659 -13.138841 1.526369 4.945593 -57.170094 9.840661 -2.197141 64.224125 -2.839730 -13.643107 -7.907401 0.000000 0.000000 0.000000 -1.733784 2.754056 -11.935848 -4.095545 2.846551 -60.459885 0.919955 4.433950 71.095405 8.082376 5.512704 2.482260 0.000000 0.000000 0.000000 -4.835837 3.699529 -18.473572 -2.611501 -4.016516 -2.791547 -0.137897 -1.636769 17.499423 0.030983 -0.008914 0.004019 -0.581818 -1.570162 20.115288 0.083889 1.306798 1.829077 0.000000 0.000000 0.000000 1.390081 -0.988112 16.094151 0.682233 -6.357656 6.835927 -58.345204 22.167794 24.308092 -6.272310 -68.200901 21.133536 0.000000 0.000000 0.000000 -2.339787 0.694934 15.852155 21.849307 2.881132 3.171009 76.919753 -23.751855 -14.178896 -61.894109 78.263012 -63.269504 0.000000 0.000000 0.000000 
-10.209284 62.545990 -16.443544 179.766098 6.131958 -179.934162 -0.543416 -1.624371 -12.459689 2.223951 4.518301 -56.613526 9.743973 -2.769892 62.809381 -3.227667 -13.965583 -8.506709 0.000000 0.000000 0.000000 -1.534071 3.092193 -11.531388 -4.219019 2.058427 -60.973502 1.274176 4.639193 71.926455 7.932364 5.554095 1.999259 0.000000 0.000000 0.000000 -4.386472 3.976752 -18.217178 -2.713263 -4.207945 -2.542098 -0.456952 -1.590921 17.339391 0.040692 0.009985 0.000146 -0.829814 -1.497921 19.955009 0.347415 0.827775 1.969347 0.000000 0.000000 0.000000 1.116265 -0.891775 15.979432 -0.086588 -5.553120 6.733942 -59.295959 19.862446 16.724415 -5.805867 -68.663414 19.591651 0.000000 0.000000 0.000000 -2.642142 0.861132 15.772022 22.443126 2.431750 3.147822 79.302594 -25.238570 -13.440033 -43.323067 74.982377 -43.978581 0.000000 0.000000 0.000000 
